<svg width="17" height="17" viewBox="0 0 17 17" fill="none" xmlns="http://www.w3.org/2000/svg">
<path fill-rule="evenodd" clip-rule="evenodd" d="M10.7801 4.93635C10.8294 4.88687 10.8881 4.84762 10.9526 4.82084C11.0172 4.79406 11.0863 4.78027 11.1562 4.78027C11.2261 4.78027 11.2953 4.79406 11.3598 4.82084C11.4244 4.84762 11.483 4.88687 11.5323 4.93635L14.7198 8.12385C14.7693 8.1732 14.8086 8.23182 14.8354 8.29636C14.8621 8.3609 14.8759 8.4301 14.8759 8.49997C14.8759 8.56985 14.8621 8.63904 14.8354 8.70358C14.8086 8.76812 14.7693 8.82675 14.7198 8.8761L11.5323 12.0636C11.4326 12.1634 11.2973 12.2194 11.1562 12.2194C11.0151 12.2194 10.8799 12.1634 10.7801 12.0636C10.6803 11.9638 10.6243 11.8285 10.6243 11.6875C10.6243 11.5464 10.6803 11.4111 10.7801 11.3113L13.5925 8.49997L10.7801 5.6886C10.7306 5.63925 10.6914 5.58063 10.6646 5.51608C10.6378 5.45154 10.624 5.38235 10.624 5.31247C10.624 5.2426 10.6378 5.1734 10.6646 5.10886C10.6914 5.04432 10.7306 4.9857 10.7801 4.93635Z" fill="white"/>
<path fill-rule="evenodd" clip-rule="evenodd" d="M2.125 8.5C2.125 8.3591 2.18097 8.22398 2.2806 8.12435C2.38023 8.02472 2.51535 7.96875 2.65625 7.96875H13.8125C13.9534 7.96875 14.0885 8.02472 14.1882 8.12435C14.2878 8.22398 14.3438 8.3591 14.3438 8.5C14.3438 8.6409 14.2878 8.77602 14.1882 8.87565C14.0885 8.97528 13.9534 9.03125 13.8125 9.03125H2.65625C2.51535 9.03125 2.38023 8.97528 2.2806 8.87565C2.18097 8.77602 2.125 8.6409 2.125 8.5Z" fill="white"/>
</svg>
