<?xml version="1.0" encoding="utf-8"?>
<!-- Generator: Adobe Illustrator 24.1.3, SVG Export Plug-In . SVG Version: 6.00 Build 0)  -->
<svg version="1.1" id="Layer_1" xmlns="http://www.w3.org/2000/svg" xmlns:xlink="http://www.w3.org/1999/xlink" x="0px" y="0px"
	 viewBox="0 0 280 25" style="enable-background:new 0 0 280 25;" xml:space="preserve">
<style type="text/css">
	.st0{fill:#FFFFFF;}
	.st1{fill:#7E61AA;}
	.st2{fill:#FFFFFF;stroke:#FFFFFF;stroke-width:0.5;stroke-linecap:round;stroke-linejoin:round;}
</style>
<g>
	<path class="st0" d="M22.6,9.9c1,1.2,1.6,2.8,1.6,4.8v9h-5.4v-8.3c0-0.9-0.2-1.6-0.7-2.1c-0.5-0.5-1.1-0.7-1.9-0.7
		c-0.8,0-1.5,0.2-1.9,0.7c-0.5,0.5-0.7,1.2-0.7,2.1v8.3H8.1V8.2h5.4v2.2c0.5-0.7,1.1-1.3,2-1.7c0.8-0.4,1.7-0.7,2.8-0.7
		C20.1,8.1,21.5,8.7,22.6,9.9z"/>
	<path class="st0" d="M27.1,11.8c0.6-1.2,1.4-2.1,2.4-2.8c1-0.7,2.2-1,3.4-1c1,0,1.9,0.2,2.7,0.6c0.8,0.4,1.4,1,1.8,1.7V3.3h5.5
		v20.5h-5.4v-2.2c-0.4,0.7-1,1.3-1.8,1.7C34.9,23.7,34,24,32.9,24c-1.2,0-2.4-0.3-3.4-1c-1-0.7-1.8-1.6-2.4-2.8
		c-0.6-1.2-0.9-2.6-0.9-4.2C26.3,14.4,26.6,13,27.1,11.8z M36.6,13.6c-0.5-0.6-1.2-0.9-2-0.9c-0.8,0-1.5,0.3-2,0.8
		c-0.5,0.6-0.8,1.4-0.8,2.4c0,1,0.2,1.8,0.8,2.4c0.5,0.6,1.2,0.9,2,0.9c0.8,0,1.5-0.3,2-0.9c0.5-0.6,0.8-1.4,0.8-2.4
		C37.4,15,37.2,14.2,36.6,13.6z"/>
	<path class="st0" d="M67.9,17.1H57.6c0,0.8,0.3,1.5,0.7,1.9c0.4,0.4,1,0.6,1.6,0.6c0.9,0,1.5-0.4,2-1.2h5.8c-0.2,1.1-0.7,2-1.4,2.9
		c-0.7,0.8-1.6,1.5-2.6,2c-1,0.5-2.2,0.7-3.5,0.7c-1.5,0-2.9-0.3-4.1-1c-1.2-0.7-2.1-1.6-2.8-2.8c-0.7-1.2-1-2.6-1-4.2
		c0-1.6,0.3-3,1-4.2c0.7-1.2,1.6-2.1,2.8-2.7c1.2-0.7,2.6-1,4.1-1c1.5,0,2.9,0.3,4.1,1c1.2,0.6,2.1,1.5,2.8,2.7c0.7,1.2,1,2.6,1,4.1
		C68,16.2,67.9,16.7,67.9,17.1z M62.4,14.5c0-0.7-0.2-1.2-0.7-1.6s-1-0.6-1.7-0.6s-1.2,0.2-1.6,0.5c-0.4,0.4-0.7,0.9-0.8,1.6
		L62.4,14.5L62.4,14.5z"/>
	<path class="st1" d="M96.9,17.1H86.6c0,0.8,0.3,1.5,0.7,1.9c0.4,0.4,1,0.6,1.6,0.6c0.9,0,1.5-0.4,2-1.2h5.8c-0.2,1.1-0.7,2-1.4,2.9
		c-0.7,0.8-1.6,1.5-2.6,2c-1,0.5-2.2,0.7-3.5,0.7c-1.5,0-2.9-0.3-4.1-1c-1.2-0.7-2.1-1.6-2.8-2.8c-0.7-1.2-1-2.6-1-4.2
		c0-1.6,0.3-3,1-4.2c0.7-1.2,1.6-2.1,2.8-2.7c1.2-0.7,2.6-1,4.1-1s2.9,0.3,4.1,1c1.2,0.6,2.1,1.5,2.8,2.7c0.7,1.2,1,2.6,1,4.1
		C97,16.2,96.9,16.7,96.9,17.1z M91.4,14.5c0-0.7-0.2-1.2-0.7-1.6c-0.5-0.4-1-0.6-1.7-0.6c-0.7,0-1.2,0.2-1.6,0.5s-0.7,0.9-0.8,1.6
		L91.4,14.5L91.4,14.5z"/>
	<path class="st1" d="M114,17.1h-10.3c0,0.8,0.3,1.5,0.7,1.9c0.4,0.4,1,0.6,1.6,0.6c0.9,0,1.5-0.4,2-1.2h5.8c-0.2,1.1-0.7,2-1.4,2.9
		c-0.7,0.8-1.6,1.5-2.6,2c-1,0.5-2.2,0.7-3.5,0.7c-1.5,0-2.9-0.3-4.1-1c-1.2-0.7-2.1-1.6-2.8-2.8c-0.7-1.2-1-2.6-1-4.2
		c0-1.6,0.3-3,1-4.2c0.7-1.2,1.6-2.1,2.8-2.7c1.2-0.7,2.6-1,4.1-1s2.9,0.3,4.1,1c1.2,0.6,2.1,1.5,2.8,2.7s1,2.6,1,4.1
		C114,16.2,114,16.7,114,17.1z M108.5,14.5c0-0.7-0.2-1.2-0.7-1.6c-0.5-0.4-1-0.6-1.7-0.6c-0.7,0-1.2,0.2-1.6,0.5s-0.7,0.9-0.8,1.6
		L108.5,14.5L108.5,14.5z"/>
	<path class="st1" d="M121.7,3.3v20.5h-5.4V3.3H121.7z"/>
	<path class="st1" d="M70.1,18c0-1.5,0-3,0-4.5c0.1,0,0.1,0,0.2,0c0.7,0,1.4,0,2.2,0c1.2,0,1.9-0.7,2.2-1.7c0.2-0.9,0.2-1.7-0.4-2.4
		c-0.4-0.5-0.9-0.8-1.6-0.8c-0.8,0-1.6,0-2.4,0c0,0-0.1,0-0.2,0c0-1.5,0-3,0-4.5c0,0,0.1,0,0.1,0c1,0,2,0,2.9,0
		c1.9,0.1,3.5,0.7,4.8,2.2c1,1,1.5,2.3,1.7,3.7c0.2,1.3,0,2.5-0.4,3.7c-0.5,1.2-1.2,2.2-2.3,3c0,0-0.1,0-0.1,0.1c0,0,0,0,0,0
		c0.2,0.4,0.5,0.8,0.7,1.2c1,1.6,2,3.2,3,4.9c0.1,0.1,0.1,0.3,0.1,0.4c0,0.2,0,0.3,0,0.5c-0.1,0-0.1,0-0.2,0c-1.7,0-3.5,0-5.3,0
		c-0.1,0-0.2,0-0.3-0.2c-1.1-1.8-2.2-3.7-3.2-5.5c0-0.1-0.1-0.1-0.2-0.1C71,18,70.6,18,70.1,18z"/>
	<path class="st2" d="M50.3,23.8c-1.7,0-3.4,0-5.2,0c0-4.5,0-9,0-13.5c1.7,0,3.4,0,5.2,0C50.3,14.8,50.3,19.3,50.3,23.8z"/>
	<path class="st2" d="M45.2,8c0-1.6,0-3.2,0-4.7c1.7,0,3.4,0,5.2,0c0,1.6,0,3.2,0,4.7C48.6,8,46.9,8,45.2,8z"/>
	<path class="st2" d="M5.7,23.9c-1.7,0-3.4,0-5.2,0c0-6.8,0-13.7,0-20.5c1.7,0,3.4,0,5.2,0C5.7,10.2,5.7,17,5.7,23.9z"/>
</g>
<g>
	<g id="XMLID_1_">
		<g>
			<path class="st0" d="M274.3,13.3h-5.1c-0.1-0.5-0.3-0.9-0.7-1.2c-0.4-0.3-0.8-0.4-1.4-0.4c-0.5,0-0.8,0.1-1,0.3
				c-0.2,0.2-0.4,0.4-0.4,0.7c0,0.4,0.2,0.7,0.7,0.9s1.1,0.4,2.1,0.6c0.2,0,0.3,0.1,0.5,0.1c1,0.2,1.8,0.5,2.4,0.7
				c0.8,0.3,1.5,0.8,2,1.5c0.6,0.7,0.9,1.6,0.9,2.8c0,0.9-0.3,1.8-0.8,2.5c-0.6,0.8-1.3,1.3-2.3,1.8c-1,0.4-2.2,0.6-3.5,0.6
				c-1.5,0-2.7-0.2-3.9-0.7c-1.1-0.5-2-1.1-2.7-2c-0.7-0.8-1-1.8-1.1-2.9h5.5c0.1,0.5,0.3,0.9,0.7,1.2c0.4,0.3,0.9,0.4,1.5,0.4
				c0.5,0,0.8-0.1,1.1-0.3c0.3-0.2,0.4-0.4,0.4-0.7c0-0.4-0.2-0.7-0.7-0.9c-0.4-0.2-1.2-0.4-2.2-0.6c-1.2-0.2-2.1-0.5-2.9-0.8
				c-0.8-0.3-1.4-0.8-2-1.4c-0.4-0.5-0.7-1.1-0.8-1.9c0-0.3-0.1-0.5-0.1-0.8c0-1,0.3-1.8,0.8-2.6c0.5-0.8,1.3-1.4,2.3-1.9
				c1-0.5,2.2-0.7,3.6-0.7c2.1,0,3.8,0.5,5,1.5C273.4,10.3,274.1,11.7,274.3,13.3z"/>
			<path class="st0" d="M260.2,15.8c0,0.4,0,0.9-0.1,1.3h-10.6c0.1,0.9,0.3,1.5,0.7,2c0.4,0.4,1,0.6,1.6,0.6c0.9,0,1.6-0.4,2-1.3h6
				c0,0,0,0.1,0,0.1c-0.2,1.1-0.7,2-1.4,2.9c-0.7,0.9-1.6,1.5-2.7,2c-1.1,0.5-2.3,0.7-3.6,0.7c-1.6,0-3-0.3-4.2-1
				c-1.2-0.7-2.2-1.6-2.9-2.9c-0.7-1.2-1-2.7-1-4.4c0-1.7,0.3-3.1,1-4.4c0.7-1.2,1.7-2.2,2.9-2.9c1.2-0.7,2.6-1,4.3-1
				c1.6,0,3,0.3,4.2,1c1.2,0.7,2.2,1.6,2.9,2.8c0.4,0.7,0.7,1.4,0.8,2.3C260.2,14.4,260.2,15.1,260.2,15.8z M249.6,14.4h5
				c0-0.7-0.2-1.2-0.7-1.6c-0.5-0.4-1-0.6-1.7-0.6s-1.3,0.2-1.7,0.6C250,13.1,249.7,13.6,249.6,14.4z"/>
			<polygon class="st0" points="244.7,7.9 239.2,24 232.2,24 226.6,7.9 232.6,7.9 235.7,18.7 238.7,7.9 			"/>
			<rect x="219.7" y="7.9" class="st0" width="5.6" height="16.1"/>
			<path class="st0" d="M225.8,3.6c0,0.8-0.3,1.5-0.9,2c-0.6,0.6-1.4,0.8-2.4,0.8c-1,0-1.8-0.3-2.4-0.8c-0.6-0.5-0.9-1.2-0.9-2
				c0-0.8,0.3-1.5,0.9-2.1c0.6-0.6,1.4-0.8,2.4-0.8c1,0,1.8,0.3,2.4,0.8C225.5,2,225.8,2.7,225.8,3.6z"/>
			<path class="st0" d="M218.1,13.3H213c-0.1-0.5-0.3-0.9-0.7-1.2c-0.3-0.3-0.8-0.4-1.4-0.4c-0.5,0-0.8,0.1-1,0.3
				c-0.2,0.2-0.4,0.4-0.4,0.7c0,0.4,0.2,0.7,0.7,0.9c0.4,0.2,1.1,0.4,2.1,0.6c0.2,0,0.3,0.1,0.5,0.1c1,0.2,1.8,0.5,2.4,0.7
				c0.8,0.3,1.4,0.8,2,1.5c0.6,0.7,0.9,1.6,0.9,2.8c0,0.9-0.3,1.8-0.8,2.5c-0.5,0.8-1.3,1.3-2.3,1.8c-1,0.4-2.2,0.6-3.5,0.6
				c-1.5,0-2.8-0.2-3.9-0.7c-1.1-0.5-2-1.1-2.7-2c-0.7-0.8-1-1.8-1.1-2.9h5.4c0.1,0.5,0.3,0.9,0.7,1.2c0.4,0.3,0.9,0.4,1.5,0.4
				c0.5,0,0.8-0.1,1.1-0.3c0.3-0.2,0.4-0.4,0.4-0.7c0-0.4-0.2-0.7-0.7-0.9c-0.4-0.2-1.2-0.4-2.2-0.6c-0.3-0.1-0.6-0.1-0.8-0.2
				c-0.8-0.2-1.5-0.4-2.1-0.6c-0.8-0.3-1.4-0.8-2-1.4c-0.6-0.6-0.8-1.5-0.8-2.6c0-1,0.3-1.8,0.8-2.6c0.5-0.8,1.3-1.4,2.3-1.9
				s2.2-0.7,3.6-0.7c2.1,0,3.8,0.5,5,1.5C217.2,10.3,217.9,11.7,218.1,13.3z"/>
			<path class="st1" d="M202.5,7.9V24h-5.6v-2.3c-0.5,0.7-1.1,1.3-2,1.8c-0.8,0.5-1.8,0.7-2.9,0.7c-1.9,0-3.4-0.6-4.4-1.9
				c-1.1-1.2-1.6-2.9-1.6-5V7.9h5.6v8.6c0,0.9,0.3,1.6,0.7,2.2c0.5,0.5,1.1,0.8,1.9,0.8c0.8,0,1.5-0.3,1.9-0.8
				c0.5-0.5,0.7-1.2,0.7-2.2V7.9H202.5z"/>
			<polygon class="st1" points="184.6,2.8 184.6,24 179,24 179,17.8 179,14.1 179,2.8 			"/>
			<path class="st1" d="M177.8,14.1h-6c-0.3-1.1-1-1.6-2-1.6c-0.7,0-1.3,0.3-1.7,0.9s-0.6,1.4-0.6,2.6c0,1.1,0.2,2,0.6,2.6
				c0.4,0.6,1,0.9,1.7,0.9c1,0,1.7-0.5,2-1.6h6c-0.4,2-1.3,3.5-2.7,4.7c-1.4,1.1-3.1,1.7-5.2,1.7c-1.6,0-3-0.3-4.2-1
				c-1.2-0.7-2.2-1.6-2.9-2.9c-0.7-1.2-1-2.7-1-4.4c0-1.7,0.3-3.1,1-4.4c0.7-1.2,1.6-2.2,2.9-2.9c1.2-0.7,2.6-1,4.2-1
				c2,0,3.8,0.6,5.2,1.7C176.5,10.5,177.4,12.1,177.8,14.1z"/>
			<polygon class="st1" points="156,16.1 161.6,24 155.3,24 152.4,20 150.1,24 144,24 149.3,15.7 143.7,7.9 150,7.9 152.9,12 
				155.3,7.9 161.4,7.9 			"/>
			<polygon class="st1" points="141.9,19.5 141.9,24 129,24 129,3.8 141.9,3.8 141.9,7.9 141.9,8.3 134.6,8.3 134.6,11.6 
				141.1,11.6 141.1,15.9 134.6,15.9 134.6,19.5 			"/>
		</g>
		<g>
		</g>
	</g>
</g>
</svg>
