<svg width="30" height="32" viewBox="0 0 30 32" fill="none" xmlns="http://www.w3.org/2000/svg">
<path d="M12.8635 0C11.6915 0 10.7257 0.985669 10.7257 2.18182V3.70455C9.18128 4.26464 7.77895 5.11297 6.57255 6.19318L5.26984 5.44318C4.24865 4.8602 2.93575 5.2292 2.36378 6.27273L0.270507 10.0796C-0.305205 11.1299 0.0697312 12.4718 1.09442 13.0568L2.39716 13.8068C2.27802 14.5228 2.17447 15.2495 2.17447 16C2.17447 16.7497 2.27827 17.4665 2.39716 18.1818L1.09442 18.9318C0.0697312 19.5168 -0.305205 20.8588 0.270507 21.9091L2.36378 25.7159C2.93571 26.7594 4.24865 27.1284 5.26984 26.5455L6.57255 25.8068C7.77785 26.8851 9.18335 27.7246 10.7257 28.2841V29.8182C10.7257 31.0143 11.6915 32 12.8635 32H17.1391C18.3112 32 19.2769 31.0143 19.2769 29.8182V28.2841C20.8156 27.7248 22.216 26.8827 23.4189 25.8068L24.7217 26.5455C25.7428 27.1284 27.0669 26.7595 27.6389 25.7159C28.3473 24.3823 29.0985 23.0378 29.7321 21.9091C30.3079 20.8588 29.9218 19.5168 28.8971 18.9318L27.5943 18.1818C27.7133 17.4665 27.8282 16.7498 27.8282 16C27.8282 15.2494 27.7135 14.5228 27.5943 13.8068L28.8971 13.0568C29.9218 12.4718 30.3079 11.1299 29.7321 10.0796C28.9851 8.76633 28.2419 7.39263 27.6389 6.27273C27.0669 5.22919 25.7428 4.86022 24.7217 5.44318L23.4189 6.18182C22.216 5.1061 20.8156 4.26372 19.2769 3.70455V2.18182C19.2769 0.985669 18.3112 0 17.1391 0H12.8635ZM12.8635 1.45455H17.1391C17.5462 1.45455 17.8517 1.76634 17.8517 2.18182V4.18182C17.8517 4.48911 18.0653 4.78375 18.3528 4.875C20.065 5.41131 21.5967 6.34735 22.8622 7.57955C23.0832 7.79331 23.4447 7.837 23.7084 7.68182L25.4231 6.70455C25.7801 6.50074 26.1929 6.62564 26.3918 6.98864L28.4851 10.7955C28.6804 11.1517 28.549 11.5937 28.1956 11.7955L26.492 12.7727C26.2308 12.9241 26.0843 13.257 26.1469 13.5568C26.3116 14.3442 26.403 15.1616 26.403 16C26.403 16.8384 26.3116 17.6444 26.1469 18.4318C26.0843 18.7316 26.2308 19.0645 26.492 19.2159L28.1956 20.1932C28.549 20.3949 28.6804 20.8369 28.4851 21.1932L26.3918 25C26.1929 25.363 25.7801 25.4879 25.4231 25.2841L23.7084 24.3068C23.4447 24.1517 23.0832 24.1953 22.8622 24.4091C21.5967 25.6413 20.0651 26.5773 18.3528 27.1136C18.0617 27.206 17.8475 27.5071 17.8517 27.8182V29.8182C17.8517 30.2336 17.5462 30.5455 17.1391 30.5455H12.8635C12.4564 30.5455 12.1509 30.2336 12.1509 29.8182V27.8182C12.1545 27.5043 11.9339 27.2019 11.6387 27.1136C9.92645 26.5773 8.39482 25.6413 7.12931 24.4091C6.90833 24.1953 6.54683 24.1517 6.28309 24.3068L4.56836 25.2841C4.21141 25.4879 3.80976 25.363 3.61083 25C2.8637 23.6868 2.12053 22.3131 1.51756 21.1932C1.32227 20.8369 1.44245 20.3949 1.7959 20.1932L3.49945 19.2159C3.76066 19.0645 3.9072 18.7316 3.84464 18.4318C3.67992 17.6444 3.59968 16.8384 3.59968 16C3.59968 15.1616 3.67992 14.3442 3.84464 13.5568C3.9072 13.257 3.76069 12.9241 3.49945 12.7727L1.7959 11.7955C1.44245 11.5937 1.32227 11.1517 1.51756 10.7955C2.22592 9.46182 2.97715 8.11738 3.61083 6.98864C3.80976 6.62564 4.21141 6.50074 4.56836 6.70455L6.28309 7.68182C6.54683 7.837 6.90833 7.79331 7.12931 7.57955C8.39475 6.34735 9.92645 5.41131 11.6387 4.875C11.9303 4.78777 12.1489 4.49192 12.1509 4.18182V2.18182C12.1509 1.76634 12.4564 1.45455 12.8635 1.45455ZM15.0013 8.72727C11.0742 8.72727 7.8753 11.992 7.8753 16C7.8753 20.008 11.0742 23.2727 15.0013 23.2727C18.9285 23.2727 22.1274 20.008 22.1274 16C22.1274 11.992 18.9285 8.72727 15.0013 8.72727ZM15.0013 10.1818C18.1583 10.1818 20.7021 12.7781 20.7021 16C20.7021 19.2219 18.1583 21.8182 15.0013 21.8182C11.8444 21.8182 9.3005 19.2219 9.3005 16C9.3005 12.778 11.8444 10.1818 15.0013 10.1818Z" fill="white"/>
</svg>
