<?xml version="1.0" encoding="utf-8"?>
<!-- Generator: Adobe Illustrator 24.1.3, SVG Export Plug-In . SVG Version: 6.00 Build 0)  -->
<svg version="1.1" id="Layer_1" xmlns="http://www.w3.org/2000/svg" xmlns:xlink="http://www.w3.org/1999/xlink" x="0px" y="0px"
	 viewBox="0 0 300 300" style="enable-background:new 0 0 300 300;" xml:space="preserve">
<style type="text/css">
	.st0{fill:#7E60A9;}
	.st1{fill:#5A477D;}
	.st2{fill:none;stroke:#7E60A9;stroke-miterlimit:10;}
	.st3{fill:none;stroke:#000000;stroke-miterlimit:10;}
	.st4{fill:none;stroke:#5A487D;stroke-width:1.000000e-02;stroke-miterlimit:10;}
	.st5{fill:none;stroke:#5A487D;stroke-width:0.1;stroke-miterlimit:10;}
	.st6{fill:#FFFFFF;}
	.st7{fill:#FFFFFF;stroke:#FFFFFF;stroke-width:0.5;stroke-linecap:round;stroke-linejoin:round;}
</style>
<g id="XMLID_1_">
	<g>
		<rect x="35.1" y="142.9" class="st0" width="44.3" height="24.9"/>
		<polygon class="st0" points="35.1,198 35.1,223 35.1,244 9.5,244 9.5,14.5 35.1,14.5 35.1,32.5 35.1,57.4 35.1,87.7 35.1,112.6 
			35.1,142.9 35.1,167.8 		"/>
		<path class="st0" d="M79.6,14.4h46.9v0.6c-6.6,0-13.1,0.1-19.7,0.1c-0.6,0-1.1,0.1-1.6,0.2c0,17.4,0,34.6,0,51.9l-0.4,0.5
			l29.6,56.7c-8.9-0.3-17.8-0.1-26.8-0.1c-0.8,0-1.6,0-2.5,0c0,17.4,0,34.4,0,51.9l-0.4,0.4l41.1,67.4H79.6V198v-55.2V87.7V32.5
			V14.4z"/>
		<path class="st1" d="M134.4,124.3l-29.6-56.7l0.4-0.5c0.8,0,1.4,0,2,0c10,0,20-0.1,30,0.1c8.2,0.1,15,3.3,19.7,9.6
			c6.4,8.7,7.4,18.2,4.5,28.2C158.4,115.6,149.6,124.8,134.4,124.3C134.4,124.3,134.4,124.3,134.4,124.3z"/>
		<polygon points="79.6,32.5 79.6,87.7 79.5,87.7 35.1,87.7 35.1,57.4 79.5,57.4 79.5,32.5 		"/>
		<path class="st1" d="M165.3,241.5c0.9,1.4,1.8,1.9,3.5,1.9v0.5h-23.1l-41.1-67.4l0.4-0.4c5.8,0,11.5,0,17.1,0
			c1.4,0,2.1,0.4,2.8,1.5C138.4,198.9,151.9,220.1,165.3,241.5z"/>
		<rect x="35.1" y="198" class="st0" width="44.3" height="24.9"/>
		<polygon points="79.6,142.9 79.6,198 79.5,198 35.1,198 35.1,167.8 79.5,167.8 79.5,142.9 		"/>
		<path class="st0" d="M143.1,15.2c-5.5-0.3-11.1-0.3-16.6-0.3v-0.6h164.1v174.1h-0.1L216.3,56.1l-0.8,0.4
			c-3.3-5.8-7.4-11.3-12.4-16.4C187,24,166.5,16.3,143.1,15.2z"/>
		<rect x="35.1" y="32.5" class="st0" width="44.3" height="24.9"/>
		<path class="st1" d="M234.9,243.3c0.7,0,1.4,0,2.4,0c0-2.1,0.2-4,0-5.9c-0.2-1.6-0.5-3.5-1.4-4.8c-12.4-18.7-25-37.4-37.5-56
			c-3.1-4.7-6.3-9.4-9.3-14c0.3-0.3,0.3-0.4,0.4-0.5c0.5-0.3,1-0.7,1.4-1c13.5-9,22.9-20.8,28.7-35.1c5.7-14,7.3-28.4,4.9-43.1
			c-1.5-9.4-4.4-18.2-9-26.3l0.8-0.4l74.1,132.4h0.1v55.4H168.9v-0.5C190.9,243.3,212.9,243.3,234.9,243.3z"/>
		<rect x="35.1" y="87.7" class="st0" width="44.3" height="24.9"/>
		<path d="M134.4,124.3C134.4,124.3,134.4,124.3,134.4,124.3c15.2,0.5,24-8.7,27-19.3c2.8-10,1.9-19.5-4.5-28.2
			c-4.7-6.3-11.5-9.5-19.7-9.6c-10-0.2-20-0.1-30-0.1c-0.6,0-1.2,0-2,0c0-17.3,0-34.5,0-51.9c0.5-0.1,1.1-0.2,1.6-0.2
			c6.6,0,13.1-0.1,19.7-0.1c5.5,0,11.1,0.1,16.6,0.3c23.4,1.1,43.9,8.7,60,24.9c5,5.1,9.2,10.5,12.4,16.4c4.6,8.1,7.5,16.9,9,26.3
			c2.3,14.7,0.8,29.1-4.9,43.1c-5.8,14.3-15.3,26.1-28.7,35.1c-0.5,0.3-1,0.7-1.4,1c-0.1,0.1-0.2,0.2-0.4,0.5
			c3.1,4.6,6.2,9.3,9.3,14c12.5,18.7,25.1,37.3,37.5,56c0.9,1.4,1.2,3.2,1.4,4.8c0.2,1.8,0,3.7,0,5.9c-0.9,0-1.7,0-2.4,0
			c-22,0-44.1,0-66.1,0c-1.7,0-2.6-0.5-3.5-1.9c-13.4-21.3-26.9-42.6-40.3-63.9c-0.7-1.1-1.4-1.5-2.8-1.5c-5.6,0.1-11.2,0-17.1,0
			c0-17.4,0-34.5,0-51.9c0.9,0,1.7,0,2.5,0C116.6,124.2,125.5,124,134.4,124.3z"/>
		<polygon points="79.6,87.7 79.6,142.9 79.5,142.9 35.1,142.9 35.1,112.6 79.5,112.6 79.5,87.7 		"/>
	</g>
	<g>
		<rect x="35.1" y="32.5" class="st2" width="44.3" height="24.9"/>
		<rect x="35.1" y="87.7" class="st2" width="44.3" height="24.9"/>
		<rect x="35.1" y="142.9" class="st2" width="44.3" height="24.9"/>
		<rect x="35.1" y="198" class="st2" width="44.3" height="24.9"/>
		<path class="st3" d="M105.1,176.1c0-17.4,0-34.5,0-51.9c0.9,0,1.7,0,2.5,0c8.9,0,17.9-0.3,26.8,0.1c0,0,0,0,0,0
			c15.1,0.5,24-8.7,27-19.3c2.8-10,1.9-19.5-4.5-28.2c-4.7-6.3-11.5-9.5-19.7-9.6c-10-0.2-20-0.1-30-0.1c-0.6,0-1.2,0-2,0
			c0-17.3,0-34.5,0-51.9c0.5-0.1,1.1-0.2,1.6-0.2c6.6,0,13.1-0.1,19.7-0.1c5.5,0,11.1,0.1,16.6,0.3c23.4,1.1,43.9,8.7,60,24.9
			c5,5.1,9.2,10.5,12.4,16.4c4.6,8.1,7.5,16.9,9,26.3c2.3,14.7,0.8,29.1-4.9,43.1c-5.8,14.3-15.3,26.1-28.7,35.1
			c-0.5,0.3-1,0.7-1.4,1c-0.1,0.1-0.2,0.2-0.4,0.5c3.1,4.6,6.2,9.3,9.3,14c12.5,18.7,25.1,37.3,37.5,56c0.9,1.4,1.2,3.2,1.4,4.8
			c0.2,1.8,0,3.7,0,5.9c-0.9,0-1.7,0-2.4,0c-22,0-44.1,0-66.1,0c-1.7,0-2.6-0.5-3.5-1.9c-13.4-21.3-26.9-42.6-40.3-63.9
			c-0.7-1.1-1.4-1.5-2.8-1.5C116.6,176.1,110.9,176.1,105.1,176.1z"/>
		<line class="st4" x1="104.7" y1="176.5" x2="145.8" y2="243.9"/>
		<polyline class="st5" points="104.8,67.6 134.4,124.3 134.4,124.4 		"/>
		<line class="st4" x1="216.3" y1="56.1" x2="290.5" y2="188.5"/>
	</g>
</g>
<g id="XMLID_2_">
	<g>
		<rect x="35.1" y="14.5" width="44.4" height="17.5"/>
		<rect x="35.1" y="223" width="44.4" height="20.9"/>
	</g>
	<g>
	</g>
</g>
<g>
	<path class="st6" d="M60.7,267.2c2.4,2.8,3.7,6.5,3.7,11.2v21H51.8v-19.3c0-2.1-0.5-3.7-1.6-4.9c-1.1-1.2-2.5-1.8-4.3-1.8
		c-1.9,0-3.4,0.6-4.4,1.8c-1.1,1.2-1.6,2.8-1.6,4.9v19.3H27.2v-36h12.6v5.1c1.1-1.6,2.6-2.9,4.5-4c1.9-1,4-1.5,6.5-1.5
		C55,263,58.3,264.4,60.7,267.2z"/>
	<path class="st6" d="M71.3,271.6c1.3-2.8,3.2-4.9,5.6-6.4c2.4-1.5,5-2.2,7.8-2.2c2.3,0,4.4,0.5,6.2,1.4c1.8,1,3.2,2.3,4.3,4v-16.4
		h12.7v47.5H95.1v-5c-1,1.7-2.4,3-4.2,4c-1.8,1-3.9,1.5-6.4,1.5c-2.9,0-5.5-0.7-7.8-2.2c-2.3-1.5-4.2-3.7-5.5-6.5
		c-1.3-2.8-2-6.1-2-9.8C69.2,277.6,69.9,274.4,71.3,271.6z M93.3,275.9c-1.3-1.3-2.8-2-4.7-2c-1.9,0-3.4,0.7-4.7,2
		c-1.2,1.3-1.9,3.1-1.9,5.5c0,2.3,0.6,4.1,1.9,5.5c1.2,1.3,2.8,2,4.7,2c1.8,0,3.4-0.7,4.7-2c1.3-1.3,1.9-3.2,1.9-5.5
		C95.2,279,94.6,277.2,93.3,275.9z"/>
	<path class="st6" d="M165.8,283.9H142c0.1,2,0.7,3.4,1.6,4.4c1,1,2.2,1.4,3.7,1.4c2.1,0,3.6-0.9,4.5-2.8h13.4
		c-0.6,2.5-1.6,4.7-3.2,6.7c-1.6,1.9-3.6,3.5-6.1,4.6c-2.4,1.1-5.1,1.7-8.1,1.7c-3.6,0-6.7-0.7-9.5-2.2c-2.8-1.5-4.9-3.6-6.5-6.4
		c-1.6-2.8-2.3-6.1-2.3-9.8c0-3.8,0.8-7,2.3-9.8c1.5-2.8,3.7-4.9,6.5-6.4c2.8-1.5,5.9-2.2,9.5-2.2c3.6,0,6.7,0.7,9.4,2.2
		c2.7,1.5,4.9,3.5,6.4,6.3c1.5,2.7,2.3,5.9,2.3,9.6C166,281.9,165.9,282.9,165.8,283.9z M153.2,277.8c0-1.5-0.5-2.8-1.5-3.6
		c-1-0.9-2.3-1.3-3.9-1.3c-1.5,0-2.8,0.4-3.8,1.3c-1,0.8-1.6,2.1-1.9,3.7H153.2z"/>
	<path class="st0" d="M233.1,283.9h-23.8c0.1,2,0.7,3.4,1.6,4.4c1,1,2.2,1.4,3.7,1.4c2.1,0,3.6-0.9,4.5-2.8h13.4
		c-0.6,2.5-1.6,4.7-3.2,6.7c-1.6,1.9-3.6,3.5-6.1,4.6c-2.4,1.1-5.1,1.7-8.1,1.7c-3.6,0-6.7-0.7-9.5-2.2c-2.8-1.5-4.9-3.6-6.5-6.4
		c-1.6-2.8-2.3-6.1-2.3-9.8c0-3.8,0.8-7,2.3-9.8c1.5-2.8,3.7-4.9,6.5-6.4c2.8-1.5,5.9-2.2,9.5-2.2c3.6,0,6.7,0.7,9.4,2.2
		c2.7,1.5,4.9,3.5,6.4,6.3c1.5,2.7,2.3,5.9,2.3,9.6C233.3,281.9,233.2,282.9,233.1,283.9z M220.4,277.8c0-1.5-0.5-2.8-1.5-3.6
		c-1-0.9-2.3-1.3-3.9-1.3c-1.5,0-2.8,0.4-3.8,1.3c-1,0.8-1.6,2.1-1.9,3.7H220.4z"/>
	<path class="st0" d="M272.7,283.9h-23.8c0.1,2,0.7,3.4,1.6,4.4s2.2,1.4,3.7,1.4c2.1,0,3.6-0.9,4.5-2.8h13.4
		c-0.6,2.5-1.6,4.7-3.2,6.7c-1.6,1.9-3.6,3.5-6.1,4.6c-2.4,1.1-5.1,1.7-8.1,1.7c-3.6,0-6.7-0.7-9.5-2.2c-2.8-1.5-4.9-3.6-6.5-6.4
		c-1.6-2.8-2.3-6.1-2.3-9.8c0-3.8,0.8-7,2.3-9.8c1.5-2.8,3.7-4.9,6.5-6.4c2.8-1.5,5.9-2.2,9.5-2.2c3.6,0,6.7,0.7,9.4,2.2
		c2.7,1.5,4.9,3.5,6.4,6.3c1.5,2.7,2.3,5.9,2.3,9.6C272.9,281.9,272.8,282.9,272.7,283.9z M260,277.8c0-1.5-0.5-2.8-1.5-3.6
		c-1-0.9-2.3-1.3-3.9-1.3c-1.5,0-2.8,0.4-3.8,1.3c-1,0.8-1.6,2.1-1.9,3.7H260z"/>
	<path class="st0" d="M290.6,251.9v47.5H278v-47.5H290.6z"/>
	<path class="st0" d="M171,285.9c0-3.5,0-6.9,0-10.4c0.2,0,0.3,0,0.5,0c1.7,0,3.3-0.1,5,0c2.8,0.1,4.4-1.7,5-3.9
		c0.5-2,0.4-3.9-0.8-5.7c-0.9-1.3-2.1-1.9-3.6-1.9c-1.8,0-3.7,0-5.5,0c-0.1,0-0.2,0-0.4,0c0-3.5,0-6.9,0-10.4c0.1,0,0.2,0,0.3,0
		c2.2,0,4.5-0.1,6.7,0.1c4.3,0.2,8.1,1.7,11.1,5c2.2,2.4,3.5,5.3,4,8.6c0.4,3,0.1,5.8-0.9,8.6c-1.1,2.9-2.8,5.2-5.3,7
		c-0.1,0.1-0.2,0.1-0.3,0.2c0,0,0,0-0.1,0.1c0.6,0.9,1.1,1.9,1.7,2.8c2.3,3.7,4.6,7.5,6.9,11.2c0.2,0.3,0.2,0.6,0.3,1
		c0,0.4,0,0.7,0,1.2c-0.2,0-0.3,0-0.4,0c-4.1,0-8.1,0-12.2,0c-0.3,0-0.5-0.1-0.6-0.4c-2.5-4.3-5-8.5-7.5-12.8
		c-0.1-0.2-0.3-0.3-0.5-0.3C173.1,285.9,172,285.9,171,285.9z"/>
	<path class="st7" d="M125.1,299.4c-4,0-8,0-12.1,0c0-10.4,0-20.9,0-31.3c4,0,8,0,12.1,0C125.1,278.6,125.1,289,125.1,299.4z"/>
	<path class="st7" d="M113.1,262.8c0-3.7,0-7.3,0-11c4,0,8,0,12.1,0c0,3.7,0,7.3,0,11C121.1,262.8,117.1,262.8,113.1,262.8z"/>
	<path class="st7" d="M21.6,299.7c-4,0-8,0-12.1,0c0-15.9,0-31.7,0-47.6c4,0,8,0,12.1,0C21.6,267.9,21.6,283.7,21.6,299.7z"/>
</g>
</svg>
