<?xml version="1.0" encoding="utf-8"?>
<!-- Generator: Adobe Illustrator 24.1.3, SVG Export Plug-In . SVG Version: 6.00 Build 0)  -->
<svg version="1.1" id="Layer_1" xmlns="http://www.w3.org/2000/svg" xmlns:xlink="http://www.w3.org/1999/xlink" x="0px" y="0px"
	 viewBox="0 0 300 150" style="enable-background:new 0 0 300 150;" xml:space="preserve">
<style type="text/css">
	.st0{fill:#FFFFFF;}
	.st1{fill:#7E60A9;}
	.st2{fill:#FFFFFF;stroke:#FFFFFF;stroke-width:0.5;stroke-linecap:round;stroke-linejoin:round;}
</style>
<g>
	<path class="st0" d="M33.9,25.3c1,1.2,1.6,2.8,1.6,4.8v9H30v-8.3c0-0.9-0.2-1.6-0.7-2.1c-0.5-0.5-1.1-0.7-1.9-0.7
		c-0.8,0-1.5,0.2-1.9,0.7c-0.5,0.5-0.7,1.2-0.7,2.1v8.3h-5.4V23.6h5.4v2.2c0.5-0.7,1.1-1.3,2-1.7c0.8-0.4,1.7-0.7,2.8-0.7
		C31.4,23.5,32.8,24.1,33.9,25.3z"/>
	<path class="st0" d="M38.4,27.2c0.6-1.2,1.4-2.1,2.4-2.8c1-0.7,2.2-1,3.4-1c1,0,1.9,0.2,2.7,0.6c0.8,0.4,1.4,1,1.8,1.7v-7.1h5.5
		v20.5h-5.4V37c-0.4,0.7-1,1.3-1.8,1.7c-0.8,0.4-1.7,0.6-2.7,0.6c-1.2,0-2.4-0.3-3.4-1c-1-0.7-1.8-1.6-2.4-2.8
		c-0.6-1.2-0.9-2.6-0.9-4.2C37.6,29.8,37.9,28.4,38.4,27.2z M47.9,29c-0.5-0.6-1.2-0.9-2-0.9c-0.8,0-1.5,0.3-2,0.8
		c-0.5,0.6-0.8,1.4-0.8,2.4c0,1,0.2,1.8,0.8,2.4c0.5,0.6,1.2,0.9,2,0.9c0.8,0,1.5-0.3,2-0.9c0.5-0.6,0.8-1.4,0.8-2.4
		C48.7,30.4,48.5,29.6,47.9,29z"/>
	<path class="st0" d="M79.2,32.5H68.9c0,0.8,0.3,1.5,0.7,1.9s1,0.6,1.6,0.6c0.9,0,1.5-0.4,2-1.2h5.8c-0.2,1.1-0.7,2-1.4,2.9
		c-0.7,0.8-1.6,1.5-2.6,2s-2.2,0.7-3.5,0.7c-1.5,0-2.9-0.3-4.1-1c-1.2-0.7-2.1-1.6-2.8-2.8c-0.7-1.2-1-2.6-1-4.2c0-1.6,0.3-3,1-4.2
		c0.7-1.2,1.6-2.1,2.8-2.7c1.2-0.7,2.6-1,4.1-1s2.9,0.3,4.1,1s2.1,1.5,2.8,2.7c0.7,1.2,1,2.6,1,4.1C79.3,31.6,79.2,32.1,79.2,32.5z
		 M73.7,29.9c0-0.7-0.2-1.2-0.7-1.6c-0.5-0.4-1-0.6-1.7-0.6c-0.7,0-1.2,0.2-1.6,0.5c-0.4,0.4-0.7,0.9-0.8,1.6L73.7,29.9L73.7,29.9z"
		/>
	<path class="st1" d="M108.2,32.5H97.9c0,0.8,0.3,1.5,0.7,1.9s1,0.6,1.6,0.6c0.9,0,1.5-0.4,2-1.2h5.8c-0.2,1.1-0.7,2-1.4,2.9
		c-0.7,0.8-1.6,1.5-2.6,2c-1,0.5-2.2,0.7-3.5,0.7c-1.5,0-2.9-0.3-4.1-1c-1.2-0.7-2.1-1.6-2.8-2.8c-0.7-1.2-1-2.6-1-4.2
		c0-1.6,0.3-3,1-4.2c0.7-1.2,1.6-2.1,2.8-2.7c1.2-0.7,2.6-1,4.1-1s2.9,0.3,4.1,1c1.2,0.6,2.1,1.5,2.8,2.7c0.7,1.2,1,2.6,1,4.1
		C108.3,31.6,108.2,32.1,108.2,32.5z M102.7,29.9c0-0.7-0.2-1.2-0.7-1.6c-0.5-0.4-1-0.6-1.7-0.6c-0.7,0-1.2,0.2-1.6,0.5
		c-0.4,0.4-0.7,0.9-0.8,1.6L102.7,29.9L102.7,29.9z"/>
	<path class="st1" d="M125.3,32.5H115c0,0.8,0.3,1.5,0.7,1.9s1,0.6,1.6,0.6c0.9,0,1.5-0.4,2-1.2h5.8c-0.2,1.1-0.7,2-1.4,2.9
		c-0.7,0.8-1.6,1.5-2.6,2s-2.2,0.7-3.5,0.7c-1.5,0-2.9-0.3-4.1-1c-1.2-0.7-2.1-1.6-2.8-2.8c-0.7-1.2-1-2.6-1-4.2c0-1.6,0.3-3,1-4.2
		c0.7-1.2,1.6-2.1,2.8-2.7c1.2-0.7,2.6-1,4.1-1s2.9,0.3,4.1,1s2.1,1.5,2.8,2.7c0.7,1.2,1,2.6,1,4.1
		C125.3,31.6,125.3,32.1,125.3,32.5z M119.8,29.9c0-0.7-0.2-1.2-0.7-1.6c-0.5-0.4-1-0.6-1.7-0.6c-0.7,0-1.2,0.2-1.6,0.5
		c-0.4,0.4-0.7,0.9-0.8,1.6L119.8,29.9L119.8,29.9z"/>
	<path class="st1" d="M133,18.7v20.5h-5.4V18.7H133z"/>
	<path class="st1" d="M81.4,33.4c0-1.5,0-3,0-4.5c0.1,0,0.1,0,0.2,0c0.7,0,1.4,0,2.2,0c1.2,0,1.9-0.7,2.2-1.7
		c0.2-0.9,0.2-1.7-0.4-2.4c-0.4-0.5-0.9-0.8-1.6-0.8c-0.8,0-1.6,0-2.4,0c0,0-0.1,0-0.2,0c0-1.5,0-3,0-4.5c0,0,0.1,0,0.1,0
		c1,0,2,0,2.9,0c1.9,0.1,3.5,0.7,4.8,2.2c1,1,1.5,2.3,1.7,3.7c0.2,1.3,0,2.5-0.4,3.7c-0.5,1.2-1.2,2.2-2.3,3c0,0-0.1,0-0.1,0.1
		c0,0,0,0,0,0c0.2,0.4,0.5,0.8,0.7,1.2c1,1.6,2,3.2,3,4.9c0.1,0.1,0.1,0.3,0.1,0.4c0,0.2,0,0.3,0,0.5c-0.1,0-0.1,0-0.2,0
		c-1.7,0-3.5,0-5.3,0c-0.1,0-0.2,0-0.3-0.2c-1.1-1.8-2.2-3.7-3.2-5.5c0-0.1-0.1-0.1-0.2-0.1C82.3,33.4,81.9,33.4,81.4,33.4z"/>
	<path class="st2" d="M61.6,39.2c-1.7,0-3.4,0-5.2,0c0-4.5,0-9,0-13.5c1.7,0,3.4,0,5.2,0C61.6,30.2,61.6,34.7,61.6,39.2z"/>
	<path class="st2" d="M56.5,23.4c0-1.6,0-3.2,0-4.7c1.7,0,3.4,0,5.2,0c0,1.6,0,3.2,0,4.7C59.9,23.4,58.2,23.4,56.5,23.4z"/>
	<path class="st2" d="M17,39.3c-1.7,0-3.4,0-5.2,0c0-6.8,0-13.7,0-20.5c1.7,0,3.4,0,5.2,0C17,25.6,17,32.4,17,39.3z"/>
</g>
<g>
	<g id="XMLID_1_">
		<g>
			<path class="st0" d="M290.6,28.7h-5.1c-0.1-0.5-0.3-0.9-0.7-1.2c-0.4-0.3-0.8-0.4-1.4-0.4c-0.5,0-0.8,0.1-1.1,0.3
				c-0.2,0.2-0.4,0.4-0.4,0.7c0,0.4,0.2,0.7,0.7,0.9c0.4,0.2,1.1,0.4,2.1,0.6c1.2,0.3,2.1,0.5,2.9,0.8c0.8,0.3,1.4,0.8,2,1.5
				c0.6,0.7,0.9,1.6,0.9,2.8c0,0.9-0.3,1.8-0.8,2.5c-0.5,0.8-1.3,1.3-2.3,1.8c-1,0.4-2.2,0.7-3.5,0.7c-1.4,0-2.8-0.2-3.9-0.7
				c-1.1-0.5-2-1.2-2.7-2s-1-1.8-1.1-2.9h5.5c0.1,0.5,0.3,0.9,0.7,1.2c0.4,0.3,0.9,0.4,1.5,0.4c0.5,0,0.8-0.1,1.1-0.3
				c0.3-0.2,0.4-0.4,0.4-0.8c0-0.4-0.2-0.7-0.7-0.9c-0.4-0.2-1.2-0.4-2.2-0.6c-1.1-0.2-2.1-0.5-2.9-0.8c-0.8-0.3-1.4-0.8-2-1.4
				c-0.4-0.5-0.7-1.1-0.8-1.8c0-0.3,0-0.5,0-0.8c0-1,0.3-1.8,0.8-2.6c0.5-0.8,1.3-1.4,2.3-1.8c1-0.5,2.2-0.7,3.6-0.7
				c2.1,0,3.8,0.5,5,1.5C289.7,25.7,290.4,27,290.6,28.7z"/>
			<path class="st0" d="M265.8,29.8h5c0-0.7-0.2-1.2-0.7-1.6c-0.5-0.4-1-0.6-1.7-0.6c-0.7,0-1.3,0.2-1.7,0.6
				C266.3,28.5,266,29,265.8,29.8z M276.5,31.1c0,0.4,0,0.9-0.1,1.3h-10.6c0.1,0.9,0.3,1.5,0.7,2c0.4,0.4,1,0.7,1.6,0.7
				c0.9,0,1.6-0.4,2-1.3h6c0,0,0,0.1,0,0.1c-0.3,1.1-0.7,2-1.4,2.8c-0.7,0.9-1.6,1.6-2.7,2.1c-1.1,0.5-2.3,0.8-3.6,0.8
				c-1.6,0-3-0.3-4.2-1c-1.2-0.7-2.2-1.6-2.9-2.9c-0.7-1.2-1-2.7-1-4.4s0.4-3.1,1-4.4c0.7-1.2,1.6-2.2,2.9-2.9c1.2-0.7,2.6-1,4.3-1
				c1.6,0,3,0.3,4.2,1c1.2,0.6,2.2,1.6,2.9,2.8c0.4,0.7,0.7,1.4,0.8,2.3C276.5,29.8,276.5,30.4,276.5,31.1z"/>
			<polygon class="st0" points="261,23.3 255.5,39.4 248.5,39.4 242.9,23.3 248.9,23.3 252,34.1 255,23.3 			"/>
			<rect x="236" y="23.3" class="st0" width="5.6" height="16.1"/>
			<path class="st0" d="M242.1,18.9c0,0.8-0.3,1.5-0.9,2c-0.6,0.5-1.4,0.8-2.4,0.8c-1,0-1.8-0.3-2.4-0.8c-0.6-0.5-0.9-1.2-0.9-2
				c0-0.8,0.3-1.5,0.9-2.1c0.6-0.6,1.4-0.8,2.4-0.8c1,0,1.8,0.3,2.4,0.8C241.8,17.4,242.1,18.1,242.1,18.9z"/>
			<path class="st0" d="M234.4,28.7h-5.1c-0.1-0.5-0.3-0.9-0.7-1.2c-0.4-0.3-0.8-0.4-1.4-0.4c-0.5,0-0.8,0.1-1.1,0.3
				c-0.2,0.2-0.4,0.4-0.4,0.7c0,0.4,0.2,0.7,0.7,0.9c0.4,0.2,1.2,0.4,2.1,0.6c1.2,0.3,2.1,0.5,2.9,0.8c0.8,0.3,1.5,0.8,2,1.5
				c0.6,0.7,0.9,1.6,0.9,2.8c0,0.9-0.3,1.8-0.8,2.5c-0.6,0.8-1.3,1.3-2.3,1.8c-1,0.4-2.2,0.7-3.5,0.7c-1.5,0-2.8-0.2-3.9-0.7
				c-1.1-0.5-2-1.2-2.7-2s-1-1.8-1.1-2.9h5.4c0.1,0.5,0.3,0.9,0.7,1.2c0.4,0.3,0.9,0.4,1.5,0.4c0.4,0,0.8-0.1,1.1-0.3
				c0.3-0.2,0.4-0.4,0.4-0.8c0-0.4-0.2-0.7-0.7-0.9c-0.4-0.2-1.2-0.4-2.2-0.6c-1.1-0.2-2.1-0.5-2.9-0.8c-0.8-0.3-1.4-0.8-2-1.4
				c-0.6-0.7-0.8-1.5-0.8-2.6c0-1,0.3-1.8,0.8-2.6c0.5-0.8,1.3-1.4,2.3-1.8c1-0.5,2.2-0.7,3.6-0.7c2.1,0,3.8,0.5,5,1.5
				C233.5,25.7,234.2,27,234.4,28.7z"/>
			<path class="st0" d="M218.8,23.3v16.1h-5.7v-2.3c-0.5,0.7-1.1,1.3-2,1.8c-0.8,0.5-1.8,0.7-2.9,0.7c-1.9,0-3.3-0.6-4.4-1.9
				c-1.1-1.2-1.6-2.9-1.6-5v-9.3h5.6v8.6c0,0.9,0.2,1.6,0.7,2.2s1.1,0.8,1.9,0.8c0.8,0,1.5-0.3,1.9-0.8c0.5-0.5,0.7-1.3,0.7-2.2
				v-8.6H218.8z"/>
			<rect x="195.3" y="18.2" class="st1" width="5.6" height="21.2"/>
			<path class="st1" d="M194.1,29.5h-6c-0.4-1-1-1.6-2-1.6c-0.7,0-1.3,0.3-1.7,0.9c-0.4,0.6-0.6,1.4-0.6,2.6c0,1.1,0.2,2,0.6,2.6
				c0.4,0.6,1,0.9,1.7,0.9c1,0,1.7-0.5,2-1.6h6c-0.4,2-1.3,3.5-2.7,4.7c-1.4,1.1-3.1,1.7-5.2,1.7c-1.6,0-3-0.3-4.2-1
				c-1.2-0.7-2.2-1.6-2.9-2.9c-0.7-1.2-1-2.7-1-4.4c0-1.7,0.4-3.1,1-4.4c0.7-1.3,1.6-2.2,2.9-2.9c1.2-0.7,2.6-1,4.2-1
				c2,0,3.8,0.6,5.2,1.7C192.8,25.9,193.7,27.5,194.1,29.5z"/>
			<polygon class="st1" points="172.3,31.5 177.9,39.4 171.6,39.4 168.7,35.3 166.4,39.4 160.3,39.4 165.6,31 160,23.3 166.3,23.3 
				169.2,27.3 171.6,23.3 177.7,23.3 			"/>
			<polygon class="st1" points="158.2,34.9 158.2,39.4 145.3,39.4 145.3,19.2 158.2,19.2 158.2,23.3 158.2,23.7 150.9,23.7 
				150.9,27 157.4,27 157.4,31.2 150.9,31.2 150.9,34.9 			"/>
		</g>
		<g>
		</g>
	</g>
</g>
</svg>
