<svg width="20" height="19" viewBox="0 0 20 19" fill="none" xmlns="http://www.w3.org/2000/svg">
<path opacity="0.6" d="M12.1492 4.24922C12.9909 4.40401 13.7644 4.79205 14.3708 5.36365C14.9772 5.93525 15.3888 6.66441 15.5531 7.45782L12.1492 4.24922ZM12.1492 1C13.8979 1.18312 15.5286 1.9213 16.7735 3.09331C18.0184 4.26533 18.8035 5.80154 19 7.4497L12.1492 1ZM18.1383 13.9319V16.3688C18.1392 16.595 18.0901 16.819 17.9939 17.0262C17.8978 17.2335 17.7568 17.4196 17.5799 17.5725C17.4031 17.7255 17.1943 17.8419 16.967 17.9144C16.7396 17.9869 16.4987 18.0138 16.2597 17.9934C13.608 17.7218 11.0608 16.8677 8.82292 15.4996C6.74082 14.2525 4.97557 12.5885 3.65252 10.6258C2.19617 8.50667 1.28985 6.09396 1.00699 3.58313C0.98546 3.3585 1.01378 3.1321 1.09015 2.91836C1.16652 2.70461 1.28927 2.5082 1.45059 2.34162C1.6119 2.17504 1.80824 2.04195 2.02711 1.95082C2.24598 1.85969 2.48258 1.81252 2.72185 1.8123H5.30705C5.72525 1.80842 6.13069 1.94802 6.44778 2.20508C6.76487 2.46214 6.97198 2.81911 7.03051 3.20947C7.13963 3.98933 7.34199 4.75506 7.63373 5.49204C7.74967 5.78279 7.77476 6.09876 7.70603 6.40254C7.63731 6.70631 7.47764 6.98515 7.24595 7.20601L6.15155 8.23763C7.37827 10.2713 9.16456 11.9551 11.322 13.1115L12.4164 12.0798C12.6506 11.8614 12.9465 11.7109 13.2687 11.6461C13.591 11.5814 13.9262 11.605 14.2346 11.7143C15.0164 11.9893 15.8288 12.1801 16.6561 12.2829C17.0747 12.3386 17.457 12.5373 17.7303 12.8414C18.0035 13.1454 18.1488 13.5335 18.1383 13.9319Z" stroke="white" stroke-width="1.35" stroke-linecap="round" stroke-linejoin="round"/>
</svg>
