<svg width="32" height="32" viewBox="0 0 32 32" fill="none" xmlns="http://www.w3.org/2000/svg">
<path d="M2.05308 31.84L2.04601 31.8392L2.03889 31.8392C1.75588 31.8375 1.47681 31.7725 1.22208 31.6489C0.96734 31.5253 0.743361 31.3462 0.566514 31.1248C0.389665 30.9033 0.264419 30.6451 0.199943 30.3689C0.135535 30.093 0.133398 29.8062 0.193684 29.5293C0.193747 29.529 0.193811 29.5288 0.193875 29.5285L2.07491 21.396L22.7572 0.707074C22.7572 0.707011 22.7573 0.706946 22.7574 0.706882C23.1153 0.350185 23.5997 0.15 24.1045 0.15C24.6092 0.15 25.0934 0.350103 25.4513 0.706658C25.4515 0.706797 25.4516 0.706935 25.4517 0.707074L31.2938 6.58936L31.4002 6.48366L31.2938 6.58936C31.65 6.948 31.85 7.43339 31.85 7.93941C31.85 8.44543 31.65 8.93082 31.2938 9.28946L10.6417 29.9582L2.44172 31.8409C2.31246 31.8533 2.18229 31.853 2.05308 31.84ZM9.75278 28.4468L9.79634 28.4376L9.82786 28.4062L25.3251 12.9513L25.4314 12.8453L25.3254 12.7391L19.3534 6.75658L19.2474 6.65044L19.1413 6.75638L3.644 22.2212L3.61355 22.2516L3.60383 22.2935L1.8421 29.8913L1.78899 30.1204L2.01907 30.072L9.75278 28.4468ZM26.4468 11.5053L26.5542 11.6129L26.6604 11.504L30.0246 8.0541L30.127 7.94904L30.0242 7.8443L24.1518 1.86177L24.0459 1.75394L23.9389 1.86057L20.4751 5.3105L20.3687 5.41647L20.4748 5.52275L26.4468 11.5053Z" fill="white" stroke="black" stroke-width="0.3"/>
</svg>
